<?xml version="1.0" encoding="UTF-8"?>
<svg id="Layer_2" data-name="Layer 2" xmlns="http://www.w3.org/2000/svg" viewBox="0 0 87.08 68.75">
  <g id="Layer_1-2" data-name="Layer 1">
    <path d="M87.08,34.38c0,18.21-14.17,33.12-32.08,34.3v-4.59c15.38-1.17,27.5-14.02,27.5-29.71s-12.12-28.53-27.5-29.7V.08c17.92,1.18,32.08,16.09,32.08,34.3ZM73.33,34.38c0,10.62-8.02,19.36-18.33,20.5v-4.62c7.77-1.11,13.75-7.8,13.75-15.88s-5.98-14.77-13.75-15.88v-4.62c10.31,1.14,18.33,9.88,18.33,20.5ZM59.58,34.38c0,2.99-1.91,5.54-4.58,6.48v-12.97c2.67.94,4.58,3.49,4.58,6.48ZM0,18.33h18.33L36.67,0h9.17v68.75h-9.17l-18.33-18.33H0V18.33ZM4.58,45.83h15.65l18.33,18.33h2.68V4.58h-2.68l-18.33,18.33H4.58v22.92Z"/>
  </g>
</svg>